PathFileType	4	(X/Y/Z)	0331.trc
DataRate	CameraRate	NumFrames	NumMarkers	Units	OrigDataRate	OrigDataStartFrame	OrigNumFrames
120	120	7	27	m	120	252	1006
Frame#	Time	RHip			RKnee			RAnkle			RBigToe			RSmallToe			RHeel			LHip			LKnee			LAnkle			LBigToe			LSmallToe			LHeel			Nose			REye			LEye			RShoulder			RElbow			RWrist			RThumb			RIndex			RPinky			LShoulder			LElbow			LWrist			LThumb			LIndex			LPinky		
		X	Y	Z	X	Y	Z	X	Y	Z	X	Y	Z	X	Y	Z	X	Y	Z	X	Y	Z	X	Y	Z	X	Y	Z	X	Y	Z	X	Y	Z	X	Y	Z	X	Y	Z	X	Y	Z	X	Y	Z	X	Y	Z	X	Y	Z	X	Y	Z	X	Y	Z	X	Y	Z	X	Y	Z	X	Y	Z	X	Y	Z	X	Y	Z	X	Y	Z	X	Y	Z	X	Y	Z
255	2.125	0.03160211667366	0.1966007739906985	0.9084168623164608	-0.0003611359124666	0.2174804652550625	0.4819342803337172	-0.0384133634182087	0.2601851550799108	0.0858416914216401	-0.0480309945375092	0.0527996133441711	0.0120473691269284	-0.0847279010239614	0.0976542908914567	0.0199631340669106	-0.0336832466136779	0.3022163456129892	0.0220542617058977	0.2601192967751101	0.1989226040856885	0.908045602083654	0.2771783795398555	0.2131430530612851	0.4792935849500383	0.3003409509407134	0.2807249977897005	0.0773178542865358	0.3274776772744467	0.0680921820344901	0.0175629517673274	0.3516763414094427	0.1182176778029881	0.0189722605165761	0.2936903368042548	0.3200889145120478	0.020452439150979	0.1656794711092805	0.1053505550569745	1.6121045994283358	0.1338200814279003	0.1169629953222803	1.6378467821539728	0.1958631417375544	0.1360359721958253	1.6434875415618178	-0.0277094550444017	0.2271731448461996	1.4718474932803385	-0.163880803226096	0.1898616696845629	1.7073224655909895	-0.2569274595281157	0.1516510517802062	1.9249512821091288	-0.2540337426411703	0.1257825274293475	1.9888648147979875	-0.2784327865116131	0.1374215589044028	2.015890116806432	-0.3215931625476239	0.1619047286743401	1.9952906603011813	0.3209786107946827	0.2528335089521529	1.4702579668800848	0.4320220799501854	0.2182008673682832	1.7021516082867618	0.5328716044119158	0.1770452489160729	1.9292874030008509	0.523107762126525	0.1332138353542225	1.9892306897826888	0.5435026660598291	0.1470030566233067	2.026058671940265	0.5874760231207502	0.1829623774700529	2.010994289526816
256	2.1333333333333333	0.0315437086467972	0.1966331328101991	0.9083498994328154	-0.000358425750745	0.217729052800578	0.482065808039112	-0.0384033865858173	0.2602955781300781	0.0858632711403294	-0.0475140255207372	0.0527118582225356	0.0119870292376637	-0.0844783544967911	0.0974980568641461	0.0198135029861635	-0.0336393033135329	0.3020363916175885	0.0220272594712785	0.2600189543830375	0.198982710425869	0.9079904415552866	0.2772197689137144	0.2132856143902586	0.4795631794648763	0.3003775464602726	0.2805682769265237	0.0776184682334748	0.3275614049683988	0.0677442414546403	0.0177865637374321	0.3516731654101024	0.1178093928032493	0.0192044596758459	0.2935800216488211	0.3201248322385394	0.0204691774050524	0.1659330933410897	0.1060486972907816	1.612473826111965	0.1335666432825316	0.1175121563381411	1.638145654527568	0.1962346496895073	0.1367586516427561	1.6439592572959056	-0.0278082111921318	0.2272228735299377	1.471952431047658	-0.1627204841256884	0.1900861131626378	1.7084899013704506	-0.2545027334760494	0.1523936816449644	1.926846409744092	-0.2508240586217435	0.1268747469021397	1.9906823378868848	-0.2750367811620887	0.1380104582813024	2.0178243374177445	-0.3187536208354316	0.1623710211203011	1.997229439413884	0.3211575423521837	0.2530068669425773	1.4705417090441328	0.4307256950104058	0.2183710142405748	1.703087640231584	0.5304053844617328	0.1771791643900584	1.9308033527291888	0.5202882668038445	0.133302372978539	1.9909096588158863	0.5403830930762212	0.1471892862738693	2.0275511443488905	0.5849134943338817	0.1835278801711309	2.012610885393278
257	2.1416666666666666	0.0315036937493039	0.196676584201594	0.9083040765354154	-0.0003492516510163	0.217938389676042	0.4822936471149031	-0.0383914476466303	0.260422693374701	0.0858598733527327	-0.0468643904010017	0.0526487567736791	0.0119392193083993	-0.0841356950254825	0.0973654808631058	0.0196695769585638	-0.0335742163509485	0.3018507420264822	0.0220035253955196	0.2599063945770336	0.1989856644226798	0.907999585548756	0.2772199944970843	0.2134190814618334	0.4798510600071483	0.3004464078693803	0.2803649887101281	0.0778859186845058	0.3276613605329739	0.0672316283830526	0.0180471179104344	0.3517329531349315	0.1172057906629309	0.0194575207096328	0.2934800406222488	0.3200665624252418	0.0204472354218297	0.1661863706460193	0.1067266146131755	1.6128177074245302	0.1333337247660726	0.1179954715390267	1.638419418416079	0.1965969324488666	0.137450968559459	1.644391140664279	-0.0279284344149773	0.2272654139166267	1.4720651832825222	-0.1615262578653471	0.1902330708141323	1.709676942215928	-0.2520406913960106	0.1530567796263162	1.928783354326156	-0.2476021812264094	0.1278439057539315	1.9925338902698744	-0.2716924993707494	0.1383014058334619	2.0198407426172658	-0.3160440639746329	0.1627068540628883	1.9991798313975209	0.3213098119205944	0.2531550665477241	1.4708091356247055	0.4294892507920891	0.2185527096223845	1.7040965995326571	0.5279161929098419	0.1773259538124212	1.9322985987452728	0.5173886906406908	0.1333860514026636	1.9925505378867023	0.5372473652642265	0.1472909532644222	2.0290234229606523	0.5824266261353291	0.1840611577696302	2.01417510855161
258	2.15	0.0314805580773579	0.1967345605214591	0.9082963938283596	-0.0003183895775082	0.2180956849162742	0.4826299035401939	-0.0383783348537665	0.2605719102552327	0.0858396884388332	-0.046152950477386	0.0526227892145526	0.011904153850383	-0.0837303948374891	0.097279649882268	0.0195466641026938	-0.0334695319893487	0.3016740121543718	0.0219909100387603	0.2597935643395477	0.1989378077546972	0.9081003755282052	0.2771921619116962	0.2135373712917912	0.4801675661662963	0.3005454364237619	0.2801281556217044	0.078101107230395	0.3277602358308408	0.0665883840060334	0.0183335196666125	0.3518448437771493	0.1164367794199424	0.0197223021351511	0.2933937547433666	0.3198978802419749	0.020390960106327	0.1664316421522153	0.1073525291612264	1.613133749704931	0.1331294523953865	0.1183994014377453	1.6386653689939832	0.196946264831559	0.1380994449251865	1.6447852076698817	-0.0280646632995875	0.2272953895613169	1.4721835468785844	-0.1603011671167149	0.1902969902560404	1.710881335054406	-0.2495300813276981	0.1536380760880248	1.930742159731149	-0.2443963843202862	0.1286763518589184	1.9944165397651408	-0.268423796536551	0.1383204442999506	2.0219277723987807	-0.3134554269634666	0.1629084915539721	2.0011264366997024	0.3214236666395037	0.253262264036069	1.4710493555032833	0.4283215992687685	0.2187421418421456	1.705155513796777	0.5254022095482779	0.1774720504919937	1.9337586906378	0.514389386820863	0.1334714349990818	1.9941485531791288	0.5341037337230521	0.1472956686473101	2.0304700118353542	0.5799950209814019	0.1845302774004842	2.0156760957312247
259	2.158333333333333	0.031464777228361	0.1968084605329961	0.9083317895091056	-0.0002520230722066	0.2182055143499009	0.4830620163172845	-0.0383693101385311	0.2607424572661637	0.0858064641419775	-0.0454437454380453	0.0526400276153274	0.0118736476057832	-0.0832868659293675	0.0972517402874331	0.0194506391308619	-0.0333229748372059	0.3015098276077243	0.0219801630566024	0.2596929197044848	0.1988538364553017	0.9083008226909666	0.2771510917572976	0.2136470765935085	0.4805104548529288	0.3006665381551048	0.2798730364075134	0.0782520935669835	0.3278358357681614	0.0658642851217692	0.0186278628940425	0.3519877202860089	0.1155549564353008	0.0199881657438748	0.2933161951915005	0.3196068235590011	0.0203077402055943	0.1666405281965127	0.1079129916256218	1.6134182001662998	0.1329372182495447	0.1187499194656995	1.6388841610464957	0.1972690312407829	0.1386962872096911	1.6451421338318877	-0.0282142984633747	0.2273093186260836	1.4723143901736373	-0.1590520562347667	0.1902851467114708	1.7121117839877793	-0.2469679944409291	0.154143855018575	1.932701348107152	-0.2412432875334078	0.1293676550717498	1.9963136673884565	-0.2652563445466426	0.1381173568605209	2.024063150549589	-0.3109631689413863	0.1629910188078996	2.003051808778897	0.3214959479572684	0.2533119719157155	1.4712495461884716	0.4272260243238021	0.2189287934741914	1.7062412352739995	0.5228687279002531	0.1776122888804805	1.9351705809049384	0.5112847308797313	0.1335675023629525	1.995700150244116	0.5309656379004449	0.1472082481576642	2.0318821896375283	0.5775997972449854	0.1849174782073562	2.0171100398945923
260	2.1666666666666665	0.0314409348371457	0.196898952022031	0.908408804658728	-0.0001471768959987	0.2182809811231605	0.4835530525009066	-0.0383696265531287	0.260932642132527	0.0857611745336451	-0.0447782280816845	0.0527012682351866	0.011837699394239	-0.0828193978501134	0.0972768517957798	0.0193809247454261	-0.0331473369727205	0.3013586863840423	0.0219538150256269	0.2596091803830821	0.1987508532510946	0.9085927353056076	0.2771054775048532	0.2137631173673844	0.4808652052588645	0.3007939697495829	0.2796146538370718	0.0783341892604331	0.3278764027227365	0.0651044360823312	0.0189143776355894	0.3521451373129169	0.1146176968960344	0.0202466120957493	0.2932297151801012	0.3191932303645579	0.0202039284287857	0.1667748166201645	0.1084094564866106	1.6136671373641889	0.1327238527950713	0.1190920789915512	1.6390740599924642	0.1975465334078618	0.1392380339162483	1.6454586918586072	-0.0283731555983229	0.2273069166023165	1.4724689537498254	-0.1577856695293193	0.1902209320506061	1.7133834674551445	-0.2443569380764158	0.1545901548462048	1.934640479710366	-0.2381784796565979	0.1299211871697494	1.9982034470316568	-0.2622132328066636	0.1377587820534931	2.02621669373603	-0.3085331609096566	0.1629855515250058	2.004940400563181	0.3215331291812846	0.2532952801071278	1.4713950080522458	0.4261949890891999	0.2191029227328411	1.7073348225050375	0.5203264723894842	0.1777542307399919	1.936527673196766	0.5080872002628188	0.1336877921276389	1.997203631035491	0.5278470285879496	0.1470552564419976	2.0332490365067306	0.5752249481605751	0.1852210108945182	2.0184801385952857
261	2.175	0.0313949141513078	0.1970063428036545	0.9085248709817852	-1.0935282665999309e-05	0.2183316281329439	0.4840576349195098	-0.0383802711618118	0.2611424301112012	0.0857048830328361	-0.0441788018550901	0.0528057394318473	0.0117909448029873	-0.0823450660561535	0.0973467919389269	0.0193344668019318	-0.0329631211282304	0.3012237025601104	0.0219026085877939	0.2595381433729072	0.198641727435834	0.9089597785376492	0.2770592607460441	0.2138938334853092	0.481211023879494	0.3009117143405524	0.2793631834240341	0.0783459226828492	0.3278887539907293	0.0643432707673789	0.0191811512229498	0.3523075317971558	0.1136777549371819	0.0204906090468682	0.2931135472075936	0.318673544823496	0.0200804434758742	0.1668093871867967	0.1088524369211998	1.6138787920116462	0.1324615542815557	0.1194599777030443	1.6392330160558106	0.1977687045062149	0.1397272812020623	1.6457305886934552	-0.0285323289146193	0.2272947036113855	1.472655868982629	-0.1565072669926171	0.1901369195580357	1.7147005614691233	-0.2417041047124263	0.1550051637416392	1.9365394483665024	-0.2352311673558852	0.1303455753872464	2.000067253136754	-0.259309895083728	0.1373147806784606	2.0283545641860106	-0.3061317083062179	0.1629353809998786	2.006780467054172	0.3215473897024731	0.2532153616665048	1.4714754239761902	0.4252141986640551	0.2192625435309172	1.708425947271489	0.5177845055235936	0.177911686656741	1.9378339221239795	0.5048251898531484	0.1338455402014274	1.9986641822037643	0.524761462587104	0.1468746051098735	2.0345648742398392	0.5728543963603414	0.1854501273394788	2.019796349282464
